<svg width="222" height="39" viewBox="0 0 222 39" fill="none" xmlns="http://www.w3.org/2000/svg">
<path d="M4.5 38.1C3.1 38.1 2.08333 37.9167 1.45 37.55C0.816667 37.15 0.5 36.6167 0.5 35.95V5C0.5 3.66666 1.45 3 3.35 3H14C18.1667 3 21.2833 4 23.35 6C25.45 7.96666 26.5 10.9333 26.5 14.9C26.5 18.8333 25.45 21.8167 23.35 23.85C21.2833 25.85 18.1667 26.85 14 26.85H9.75V35.95C9.75 36.6167 9.43333 37.15 8.8 37.55C8.16667 37.9167 7.15 38.1 5.75 38.1H4.5ZM9.75 18.3H14C15.1 18.3 15.8833 18.0333 16.35 17.5C16.85 16.9667 17.1 16.1 17.1 14.9C17.1 13.7333 16.85 12.8833 16.35 12.35C15.8833 11.8167 15.1 11.55 14 11.55H9.75V18.3ZM39.9391 38.4C35.4724 38.4 32.1391 37.25 29.9391 34.95C27.7391 32.65 26.6391 29.3 26.6391 24.9C26.6391 22.1 27.1557 19.7 28.1891 17.7C29.2224 15.7 30.7057 14.1667 32.6391 13.1C34.5724 12 36.8724 11.45 39.5391 11.45C42.1391 11.45 44.3057 11.9167 46.0391 12.85C47.8057 13.7833 49.1224 15.1667 49.9891 17C50.8891 18.8333 51.3391 21.1333 51.3391 23.9C51.3391 24.4667 51.1391 25.0667 50.7391 25.7C50.3724 26.3 49.9057 26.8167 49.3391 27.25C48.8057 27.65 48.2891 27.85 47.7891 27.85H35.9891C35.9891 29.15 36.4724 30.0667 37.4391 30.6C38.4391 31.1 39.5557 31.35 40.7891 31.35C41.9557 31.35 43.0391 31.25 44.0391 31.05C45.0724 30.8167 45.9557 30.6 46.6891 30.4C47.4557 30.2 48.0057 30.1 48.3391 30.1C48.8057 30.1 49.2057 30.4333 49.5391 31.1C49.9057 31.7333 50.1891 32.45 50.3891 33.25C50.5891 34.0167 50.6891 34.6333 50.6891 35.1C50.6891 35.5667 50.4224 36 49.8891 36.4C49.3557 36.8 48.6057 37.15 47.6391 37.45C46.6724 37.75 45.5224 37.9833 44.1891 38.15C42.8891 38.3167 41.4724 38.4 39.9391 38.4ZM35.9891 22.4H42.6891C42.6891 20.7333 42.4224 19.6167 41.8891 19.05C41.3557 18.4833 40.5391 18.2 39.4391 18.2C38.7391 18.2 38.1391 18.3 37.6391 18.5C37.1391 18.7 36.7391 19.1 36.4391 19.7C36.1724 20.3 36.0224 21.2 35.9891 22.4ZM62.7039 38.4C60.7706 38.4 59.0706 37.8833 57.6039 36.85C56.1706 35.8167 55.0539 34.3 54.2539 32.3C53.4872 30.3 53.1039 27.8333 53.1039 24.9C53.1039 22.0333 53.5039 19.6 54.3039 17.6C55.1039 15.6 56.2206 14.0833 57.6539 13.05C59.0872 11.9833 60.7706 11.45 62.7039 11.45C63.8706 11.45 65.0206 11.65 66.1539 12.05C67.3206 12.4167 68.3039 12.9333 69.1039 13.6V2.4C69.1039 1.7 69.4039 1.18333 70.0039 0.849998C70.6039 0.483333 71.5706 0.3 72.9039 0.3H74.3039C75.6372 0.3 76.6039 0.483333 77.2039 0.849998C77.8039 1.18333 78.1039 1.7 78.1039 2.4V29.3C78.1039 30.9333 78.1372 32.15 78.2039 32.95C78.3039 33.75 78.3872 34.35 78.4539 34.75C78.5539 35.1167 78.6039 35.4833 78.6039 35.85C78.6039 36.3167 78.4039 36.7 78.0039 37C77.6372 37.2667 77.1372 37.4833 76.5039 37.65C75.8706 37.8167 75.1872 37.9333 74.4539 38C73.7539 38.0333 73.0539 38.05 72.3539 38.05C71.5539 38.05 70.9706 37.95 70.6039 37.75C70.2372 37.55 69.9872 37.2 69.8539 36.7C69.7206 36.2 69.5872 35.5 69.4539 34.6C69.0872 35.3 68.5872 35.95 67.9539 36.55C67.3539 37.1167 66.6206 37.5667 65.7539 37.9C64.8872 38.2333 63.8706 38.4 62.7039 38.4ZM65.8039 31.05C66.3706 31.05 66.9872 30.9333 67.6539 30.7C68.3206 30.4667 68.8039 30.1833 69.1039 29.85V20C68.8372 19.6 68.3706 19.3 67.7039 19.1C67.0706 18.9 66.4372 18.8 65.8039 18.8C64.5372 18.8 63.6372 19.2667 63.1039 20.2C62.5706 21.1333 62.3039 22.7167 62.3039 24.95C62.3039 27.15 62.5706 28.7167 63.1039 29.65C63.6372 30.5833 64.5372 31.05 65.8039 31.05ZM86.2254 38.1C84.8921 38.1 83.9254 37.9667 83.3254 37.7C82.7254 37.4333 82.4254 37.0333 82.4254 36.5V13.35C82.4254 12.8167 82.7254 12.4167 83.3254 12.15C83.9254 11.8833 84.8921 11.75 86.2254 11.75H87.6254C88.9587 11.75 89.9254 11.8833 90.5254 12.15C91.1254 12.4167 91.4254 12.8167 91.4254 13.35V36.5C91.4254 37.0333 91.1254 37.4333 90.5254 37.7C89.9254 37.9667 88.9587 38.1 87.6254 38.1H86.2254ZM86.9254 9.3C85.2921 9.3 84.0921 9.13333 83.3254 8.8C82.5921 8.43333 82.2254 7.9 82.2254 7.2V4.3C82.2254 3.6 82.5921 3.08333 83.3254 2.75C84.0921 2.38333 85.2921 2.2 86.9254 2.2C88.5921 2.2 89.7921 2.38333 90.5254 2.75C91.2587 3.08333 91.6254 3.6 91.6254 4.3V7.2C91.6254 7.9 91.2587 8.43333 90.5254 8.8C89.7921 9.13333 88.5921 9.3 86.9254 9.3ZM112.058 38.4C106.458 38.4 102.208 36.8833 99.3078 33.85C96.4411 30.8167 95.0078 26.3667 95.0078 20.5C95.0078 14.6333 96.4411 10.1833 99.3078 7.15C102.208 4.11667 106.474 2.6 112.108 2.6C113.241 2.6 114.408 2.68333 115.608 2.85C116.841 3.01667 118.008 3.26667 119.108 3.6C120.241 3.9 121.158 4.26667 121.858 4.7C122.258 4.93333 122.574 5.2 122.808 5.5C123.074 5.76667 123.208 6.1 123.208 6.5C123.208 6.9 123.108 7.45 122.908 8.15C122.741 8.81667 122.508 9.5 122.208 10.2C121.908 10.8667 121.574 11.4333 121.208 11.9C120.874 12.3667 120.524 12.6 120.158 12.6C119.791 12.6 119.274 12.4833 118.608 12.25C117.974 11.9833 117.141 11.7333 116.108 11.5C115.074 11.2667 113.808 11.15 112.308 11.15C110.574 11.15 109.141 11.4333 108.008 12C106.874 12.5333 106.024 13.4833 105.458 14.85C104.924 16.2167 104.658 18.1 104.658 20.5C104.658 22.8667 104.924 24.7333 105.458 26.1C106.024 27.4667 106.874 28.4333 108.008 29C109.141 29.5667 110.574 29.85 112.308 29.85C113.474 29.85 114.508 29.7667 115.408 29.6C116.341 29.4 117.141 29.1833 117.808 28.95C118.508 28.6833 119.091 28.4667 119.558 28.3C120.024 28.1 120.374 28 120.608 28C121.041 28 121.441 28.2333 121.808 28.7C122.174 29.1667 122.491 29.75 122.758 30.45C123.024 31.1167 123.224 31.7667 123.358 32.4C123.524 33 123.608 33.45 123.608 33.75C123.608 34.3167 123.508 34.75 123.308 35.05C123.108 35.35 122.624 35.7167 121.858 36.15C121.024 36.6167 120.041 37.0167 118.908 37.35C117.774 37.6833 116.608 37.9333 115.408 38.1C114.241 38.3 113.124 38.4 112.058 38.4ZM133.165 38.4C130.665 38.4 128.765 37.6667 127.465 36.2C126.165 34.7 125.515 32.7333 125.515 30.3C125.515 29.3667 125.682 28.4 126.015 27.4C126.348 26.3667 127.015 25.4 128.015 24.5C129.015 23.6 130.498 22.8667 132.465 22.3C134.432 21.7333 137.065 21.45 140.365 21.45V20.5C140.365 20 140.265 19.5833 140.065 19.25C139.898 18.9167 139.548 18.6833 139.015 18.55C138.482 18.3833 137.682 18.3 136.615 18.3C135.315 18.3 134.115 18.4167 133.015 18.65C131.948 18.85 131.032 19.0667 130.265 19.3C129.498 19.5 128.932 19.6 128.565 19.6C128.265 19.6 127.982 19.4 127.715 19C127.482 18.6 127.282 18.1 127.115 17.5C126.948 16.9 126.815 16.3167 126.715 15.75C126.648 15.1833 126.615 14.75 126.615 14.45C126.615 14.0167 126.948 13.6167 127.615 13.25C128.315 12.8833 129.215 12.5667 130.315 12.3C131.415 12.0333 132.565 11.8333 133.765 11.7C134.998 11.5333 136.132 11.45 137.165 11.45C139.632 11.45 141.665 11.6667 143.265 12.1C144.865 12.5333 146.098 13.15 146.965 13.95C147.865 14.75 148.482 15.7 148.815 16.8C149.182 17.9 149.365 19.1 149.365 20.4V29.2C149.365 30.7 149.415 31.9167 149.515 32.85C149.615 33.75 149.715 34.4667 149.815 35C149.915 35.5333 149.965 35.9833 149.965 36.35C149.965 36.75 149.715 37.0667 149.215 37.3C148.748 37.5 148.148 37.6667 147.415 37.8C146.682 37.9 145.915 37.9667 145.115 38C144.315 38.0333 143.598 38.05 142.965 38.05C142.565 38.05 142.248 37.95 142.015 37.75C141.815 37.5167 141.648 37.2 141.515 36.8C141.415 36.4 141.298 35.9667 141.165 35.5C140.865 35.8667 140.348 36.2833 139.615 36.75C138.915 37.2167 138.015 37.6167 136.915 37.95C135.848 38.25 134.598 38.4 133.165 38.4ZM136.665 31.55C137.065 31.55 137.465 31.5167 137.865 31.45C138.265 31.35 138.682 31.2333 139.115 31.1C139.548 30.9333 139.965 30.75 140.365 30.55V26.95C139.165 26.95 138.165 27 137.365 27.1C136.598 27.2 135.965 27.35 135.465 27.55C134.998 27.75 134.665 28.0167 134.465 28.35C134.265 28.65 134.165 29.0333 134.165 29.5C134.165 30.1333 134.348 30.6333 134.715 31C135.115 31.3667 135.765 31.55 136.665 31.55ZM157.661 38.1C156.328 38.1 155.361 37.9333 154.761 37.6C154.161 37.2333 153.861 36.7 153.861 36V20.55C153.861 18.9167 153.811 17.7 153.711 16.9C153.644 16.1 153.561 15.5167 153.461 15.15C153.394 14.75 153.361 14.3667 153.361 14C153.361 13.5667 153.544 13.2167 153.911 12.95C154.311 12.65 154.828 12.4333 155.461 12.3C156.094 12.1333 156.761 12.0333 157.461 12C158.194 11.9333 158.911 11.9 159.611 11.9C160.378 11.9 160.944 12 161.311 12.2C161.678 12.4 161.944 12.7833 162.111 13.35C162.311 13.9167 162.478 14.7667 162.611 15.9C162.978 15.0333 163.444 14.2667 164.011 13.6C164.611 12.9333 165.244 12.4167 165.911 12.05C166.611 11.65 167.261 11.45 167.861 11.45C168.628 11.45 169.178 11.6333 169.511 12C169.844 12.3667 170.011 12.9667 170.011 13.8C170.011 14.1333 169.978 14.7 169.911 15.5C169.844 16.2667 169.728 17.0833 169.561 17.95C169.394 18.8167 169.161 19.5667 168.861 20.2C168.561 20.8333 168.178 21.15 167.711 21.15C167.378 21.15 167.011 21.0167 166.611 20.75C166.244 20.4833 165.778 20.35 165.211 20.35C164.678 20.35 164.194 20.5333 163.761 20.9C163.328 21.2333 163.028 21.6833 162.861 22.25V36C162.861 36.7 162.561 37.2333 161.961 37.6C161.361 37.9333 160.394 38.1 159.061 38.1H157.661ZM183.445 38.4C178.978 38.4 175.645 37.25 173.445 34.95C171.245 32.65 170.145 29.3 170.145 24.9C170.145 22.1 170.662 19.7 171.695 17.7C172.728 15.7 174.212 14.1667 176.145 13.1C178.078 12 180.378 11.45 183.045 11.45C185.645 11.45 187.812 11.9167 189.545 12.85C191.312 13.7833 192.628 15.1667 193.495 17C194.395 18.8333 194.845 21.1333 194.845 23.9C194.845 24.4667 194.645 25.0667 194.245 25.7C193.878 26.3 193.412 26.8167 192.845 27.25C192.312 27.65 191.795 27.85 191.295 27.85H179.495C179.495 29.15 179.978 30.0667 180.945 30.6C181.945 31.1 183.062 31.35 184.295 31.35C185.462 31.35 186.545 31.25 187.545 31.05C188.578 30.8167 189.462 30.6 190.195 30.4C190.962 30.2 191.512 30.1 191.845 30.1C192.312 30.1 192.712 30.4333 193.045 31.1C193.412 31.7333 193.695 32.45 193.895 33.25C194.095 34.0167 194.195 34.6333 194.195 35.1C194.195 35.5667 193.928 36 193.395 36.4C192.862 36.8 192.112 37.15 191.145 37.45C190.178 37.75 189.028 37.9833 187.695 38.15C186.395 38.3167 184.978 38.4 183.445 38.4ZM179.495 22.4H186.195C186.195 20.7333 185.928 19.6167 185.395 19.05C184.862 18.4833 184.045 18.2 182.945 18.2C182.245 18.2 181.645 18.3 181.145 18.5C180.645 18.7 180.245 19.1 179.945 19.7C179.678 20.3 179.528 21.2 179.495 22.4ZM209.598 38C207.598 38 206.598 37.4333 206.598 36.3V29.4H199.698C198.565 29.4 197.998 28.4 197.998 26.4V26.05C197.998 24.05 198.565 23.05 199.698 23.05H206.598V16.05C206.598 14.9167 207.598 14.35 209.598 14.35H210.298C212.298 14.35 213.298 14.9167 213.298 16.05V23.05H220.298C221.431 23.05 221.998 24.05 221.998 26.05V26.4C221.998 28.4 221.431 29.4 220.298 29.4H213.298V36.3C213.298 37.4333 212.298 38 210.298 38H209.598Z" fill="#465C47"/>
</svg>
